# xmcd
#
# Track frame offsets: 
#        150
#        19155
#        30329
#        42471
#        56810
#        74177
#        77214
#        88072
#        101918
#        118400
#        133240
#        149941
#
# Disc length: 2283 seconds
#
# Revision: 0
# Processed by: cddbd v1.5.1PL0 Copyright (c) Steve Scherf et al.
# Submitted via: ExactAudioCopy v0.95a3
#
DISCID=c408e90c
DTITLE=Berkeley Bread And Roses - Neil Young
DYEAR=1980
DGENRE=Rock
TTITLE0=Are You Ready For The Country
TTITLE1=Coastline
TTITLE2=Stayin Power
TTITLE3=Turbine
TTITLE4=Motor City
TTITLE5=Band Intro
TTITLE6=Union Man
TTITLE7=Comin' Apart At Every Nail
TTITLE8=Hawks And Doves
TTITLE9=Homegrown
TTITLE10=Four Strong Winds
TTITLE11=Are You Ready For The Country
EXTD=
EXTT0=
EXTT1=
EXTT2=
EXTT3=
EXTT4=
EXTT5=
EXTT6=
EXTT7=
EXTT8=
EXTT9=
EXTT10=
EXTT11=
PLAYORDER=
